HIERARCHY
ROOT Hips
{
 OFFSET 0.000000 0.000000 0.000000
 CHANNELS 6 Xposition Yposition Zposition Yrotation Xrotation Zrotation
 JOINT Chest
 {
  OFFSET 0.000000 10.383400 0.001500
  CHANNELS 3 Yrotation Xrotation Zrotation
  JOINT Chest2
  {
   OFFSET 0.000000 10.418200 -0.003100
   CHANNELS 3 Yrotation Xrotation Zrotation
   JOINT Chest3
   {
    OFFSET 0.000000 10.375100 0.000000
    CHANNELS 3 Yrotation Xrotation Zrotation
    JOINT Chest4
    {
     OFFSET 0.000000 10.364600 0.000000
     CHANNELS 3 Yrotation Xrotation Zrotation
     JOINT Neck
     {
      OFFSET 0.000000 15.642200 0.000000
      CHANNELS 3 Yrotation Xrotation Zrotation
      JOINT Head
      {
       OFFSET 0.000000 9.697300 -0.006500
       CHANNELS 3 Yrotation Xrotation Zrotation
       End Site
       {
        OFFSET 0.000000 18.492200 -0.003400
       }
      }
     }
     JOINT RightCollar
     {
      OFFSET -3.166800 10.349300 0.000000
      CHANNELS 3 Yrotation Xrotation Zrotation
      JOINT RightShoulder
      {
       OFFSET -14.729700 0.000000 0.000000
       CHANNELS 3 Yrotation Xrotation Zrotation
       JOINT RightElbow
       {
        OFFSET 0.000000 -32.224300 0.000000
        CHANNELS 3 Yrotation Xrotation Zrotation
        JOINT RightWrist
        {
         OFFSET 0.000000 -26.084100 0.000000
         CHANNELS 3 Yrotation Xrotation Zrotation
         End Site
         {
          OFFSET 0.000000 -19.319400 0.000000
         }
        }
       }
      }
     }
     JOINT LeftCollar
     {
      OFFSET 3.166800 10.349300 0.000000
      CHANNELS 3 Yrotation Xrotation Zrotation
      JOINT LeftShoulder
      {
       OFFSET 14.729700 0.000000 0.000000
       CHANNELS 3 Yrotation Xrotation Zrotation
       JOINT LeftElbow
       {
        OFFSET 0.000000 -32.224300 0.000000
        CHANNELS 3 Yrotation Xrotation Zrotation
        JOINT LeftWrist
        {
         OFFSET 0.000000 -26.084100 0.000000
         CHANNELS 3 Yrotation Xrotation Zrotation
         End Site
         {
          OFFSET 0.000000 -19.319400 0.000000
         }
        }
       }
      }
     }
    }
   }
  }
 }
 JOINT RightHip
 {
  OFFSET -8.428900 -0.007500 -0.000800
  CHANNELS 3 Yrotation Xrotation Zrotation
  JOINT RightKnee
  {
   OFFSET 0.000000 -43.834600 0.000700
   CHANNELS 3 Yrotation Xrotation Zrotation
   JOINT RightAnkle
   {
    OFFSET 0.000000 -42.757000 0.001200
    CHANNELS 3 Yrotation Xrotation Zrotation
    JOINT RightToe
    {
     OFFSET 0.000000 -6.946900 15.649300
     CHANNELS 3 Yrotation Xrotation Zrotation
     End Site
     {
      OFFSET 0.000000 -1.580800 6.825800
     }
    }
   }
  }
 }
 JOINT LeftHip
 {
  OFFSET 8.428900 -0.007500 -0.000800
  CHANNELS 3 Yrotation Xrotation Zrotation
  JOINT LeftKnee
  {
   OFFSET 0.000000 -43.834600 0.000700
   CHANNELS 3 Yrotation Xrotation Zrotation
   JOINT LeftAnkle
   {
    OFFSET 0.000000 -42.757000 0.001200
    CHANNELS 3 Yrotation Xrotation Zrotation
    JOINT LeftToe
    {
     OFFSET 0.000000 -6.946900 15.649300
     CHANNELS 3 Yrotation Xrotation Zrotation
     End Site
     {
      OFFSET 0.000000 -1.580800 6.825800
     }
    }
   }
  }
 }
}
MOTION
Frames: 15
Frame Time: 0.008333
0.000000 93.354300 0.000000 0.000000 -5.767877 0.000000 0.000000 11.653817 0.000000 0.000000 -5.885947 0.000000 0.000000 -0.000000 0.000000 0.000000 -0.000000 0.000000 0.000000 12.528835 0.000000 0.000000 0.711642 0.000000 0.000000 -0.000000 0.000000 0.000000 0.000000 -90.000000 0.000000 -2.309062 0.000000 0.000000 2.309062 0.000000 0.000000 -0.000000 0.000000 0.000000 -0.000000 90.000000 0.000000 -2.309062 0.000000 0.000000 2.309062 0.000000 0.000000 8.520406 0.000000 0.000000 1.905762 0.000000 -0.000000 -4.658285 0.000000 0.000000 -0.000000 0.000000 0.000000 8.520406 0.000000 0.000000 1.905762 0.000000 -0.000000 -4.658285 0.000000 0.000000 -0.000000 0.000000
23.978542 126.938588 -51.323589 -16.344526 -28.133698 -1.330365 0.066681 16.319072 2.122755 -0.022029 1.639210 0.212728 -0.032762 2.743135 0.355944 0.027306 14.434114 1.868098 1.014026 14.714237 -0.858861 2.224615 -8.444886 -1.992226 -3.372416 -4.896551 -3.869416 6.980309 -11.134706 -5.142675 24.717703 -46.011939 -1.490069 7.312331 3.070197 -22.964910 -2.243605 -7.736557 -3.057209 -4.022716 -6.450460 4.137705 -29.071015 -48.765598 9.612094 -25.574574 4.801392 15.670234 -4.058228 -41.823717 0.470374 -27.037961 74.820577 -29.840124 1.301254 -4.963187 7.329988 0.002154 -0.008113 0.000956 -4.629412 -35.126021 -5.745048 1.052506 69.344701 4.247379 -11.227260 -5.734236 -5.616200 0.000414 -0.000930 0.000184
23.978373 126.938478 -51.323194 -16.344620 -28.131634 -1.331827 0.068485 16.319460 2.123349 -0.022097 1.638468 0.211447 -0.031344 2.745188 0.353098 0.027184 14.437090 1.871887 1.006643 14.710144 -0.851798 2.200970 -8.453701 -1.968186 -3.384720 -4.896142 -3.870450 6.979998 -11.132842 -5.130460 24.732473 -46.021322 -1.497365 7.318424 3.073965 -22.969327 -2.243717 -7.741713 -3.055300 -4.023510 -6.443806 4.142594 -29.072540 -48.771936 9.613611 -25.587524 4.802257 15.672597 -4.060534 -41.824705 0.471116 -27.042420 74.817959 -29.841884 1.307216 -4.967537 7.323569 0.002596 -0.008643 0.001152 -4.628270 -35.127236 -5.742162 1.056826 69.342761 4.250512 -11.244120 -5.731275 -5.612357 -0.000399 -0.000942 -0.000177
23.979031 126.938201 -51.322587 -16.341663 -28.127544 -1.329988 0.066403 16.318740 2.120305 -0.020820 1.642241 0.211183 -0.031428 2.745949 0.352922 0.023211 14.433327 1.873227 1.001480 14.706535 -0.844565 2.189749 -8.462798 -1.953303 -3.389432 -4.892408 -3.875916 6.976410 -11.132859 -5.116917 24.743465 -46.028764 -1.499315 7.325690 3.077273 -22.977038 -2.234251 -7.740403 -3.053421 -4.038540 -6.436374 4.143740 -29.066838 -48.782830 9.616258 -25.601070 4.804701 15.662788 -4.058962 -41.828804 0.465814 -27.051102 74.817911 -29.848332 1.304475 -4.971727 7.320832 0.001729 -0.008381 0.000768 -4.617560 -35.128008 -5.751491 1.062925 69.337675 4.261199 -11.251902 -5.728079 -5.608956 -0.000542 0.000006 -0.000241
23.979161 126.937893 -51.321962 -16.339252 -28.122650 -1.330556 0.063059 16.318565 2.119938 -0.021044 1.643480 0.210961 -0.031948 2.744188 0.353554 0.023646 14.430097 1.872702 0.998833 14.705400 -0.835081 2.188733 -8.467261 -1.953763 -3.401194 -4.882413 -3.877522 6.983621 -11.139256 -5.110110 24.754724 -46.033027 -1.501811 7.322145 3.082116 -22.995307 -2.227289 -7.739028 -3.054579 -4.045554 -6.430120 4.148996 -29.062696 -48.790906 9.610765 -25.607277 4.801676 15.659076 -4.059957 -41.833278 0.465091 -27.052845 74.819170 -29.849562 1.301206 -4.978129 7.319730 0.000409 -0.008837 0.000181 -4.611284 -35.129379 -5.756632 1.067043 69.334255 4.270882 -11.255327 -5.728212 -5.608503 -0.000200 0.001112 -0.000089
23.978400 126.937906 -51.320731 -16.336008 -28.121099 -1.335130 0.061650 16.319601 2.122375 -0.021428 1.642388 0.211428 -0.031659 2.749953 0.353791 0.021056 14.427481 1.872978 1.006413 14.702581 -0.827508 2.182851 -8.474420 -1.951334 -3.401400 -4.882075 -3.874226 6.985661 -11.142377 -5.112393 24.761263 -46.035930 -1.499745 7.315045 3.083762 -23.013403 -2.217402 -7.741330 -3.051084 -4.055075 -6.426581 4.148503 -29.061507 -48.792269 9.588903 -25.602349 4.807633 15.676688 -4.059910 -41.832989 0.467731 -27.061060 74.818009 -29.853201 1.301441 -4.983442 7.315859 0.001710 -0.009050 0.000759 -4.609298 -35.128646 -5.759986 1.072792 69.335565 4.282118 -11.241145 -5.730401 -5.610062 0.000377 0.001052 0.000167
23.978361 126.936518 -51.321861 -16.333920 -28.102451 -1.338898 0.061493 16.308219 2.125366 -0.020083 1.651913 0.215764 -0.033500 2.736849 0.350247 0.025466 14.437625 1.883337 1.010312 14.690846 -0.828612 2.180908 -8.483730 -1.943363 -3.405166 -4.894346 -3.880664 6.978909 -11.132740 -5.113707 24.777219 -46.050859 -1.503714 7.314983 3.083212 -23.033574 -2.215085 -7.757704 -3.055030 -4.050798 -6.418029 4.151741 -29.067331 -48.799743 9.570578 -25.591876 4.811716 15.685735 -4.059174 -41.852712 0.469150 -27.069920 74.819366 -29.854942 1.301644 -4.985582 7.312297 0.002106 -0.008312 0.000935 -4.607898 -35.147054 -5.761487 1.055855 69.337657 4.273652 -11.225437 -5.732443 -5.612916 -0.000069 0.000850 -0.000031
23.978538 126.935775 -51.321532 -16.333158 -28.090985 -1.338577 0.061818 16.307630 2.128583 -0.020376 1.649425 0.215819 -0.033180 2.738089 0.350768 0.025737 14.431303 1.884207 1.013470 14.688344 -0.828658 2.231861 -8.492769 -1.931114 -3.406927 -4.895573 -3.882111 6.973719 -11.120021 -5.113950 24.796272 -46.070403 -1.511896 7.319798 3.087419 -23.061493 -2.215301 -7.762386 -3.051781 -4.040890 -6.410728 4.150185 -29.076508 -48.806783 9.559316 -25.581768 4.812060 15.689590 -4.055732 -41.864747 0.465033 -27.067188 74.821937 -29.846246 1.299274 -4.988874 7.308396 0.001708 -0.007770 0.000758 -4.609751 -35.157375 -5.767994 1.070557 69.338943 4.286543 -11.188951 -5.733489 -5.615736 0.001418 0.000610 0.000629
23.978276 126.935233 -51.320974 -16.333206 -28.081208 -1.339927 0.063683 16.311346 2.135737 -0.021398 1.643666 0.213044 -0.031976 2.744221 0.355069 0.023542 14.418083 1.878970 1.019732 14.687853 -0.825722 2.242284 -8.493080 -1.931159 -3.405217 -4.893785 -3.874925 6.971068 -11.111448 -5.122023 24.810262 -46.087851 -1.515489 7.325601 3.093261 -23.084728 -2.214372 -7.763139 -3.051113 -4.031286 -6.407266 4.154831 -29.081454 -48.813651 9.549396 -25.575414 4.812309 15.686287 -4.054566 -41.873577 0.465901 -27.059687 74.823332 -29.834940 1.298214 -4.992893 7.306419 0.003366 -0.006692 0.001494 -4.613733 -35.168308 -5.769456 1.085235 69.342603 4.299221 -11.167272 -5.729985 -5.618342 0.002198 0.000242 0.000976
23.978089 126.934864 -51.320151 -16.335280 -28.073106 -1.339682 0.066461 16.311857 2.138048 -0.021728 1.639869 0.212987 -0.032175 2.742881 0.354903 0.022948 14.423832 1.882656 1.033245 14.685745 -0.823363 2.247859 -8.498171 -1.933473 -3.391877 -4.903439 -3.864965 6.958508 -11.096230 -5.137575 24.820891 -46.104295 -1.520356 7.335958 3.097129 -23.111477 -2.211279 -7.772230 -3.050812 -4.007032 -6.416854 4.165096 -29.099004 -48.812560 9.508310 -25.561306 4.819827 15.704496 -4.049600 -41.883117 0.465377 -27.062960 74.825350 -29.834087 1.296241 -4.994145 7.299287 0.004110 -0.007585 0.001824 -4.618787 -35.177421 -5.765339 1.084827 69.345124 4.300594 -11.186681 -5.729870 -5.620203 0.000053 -0.000110 0.000024
23.977566 126.934648 -51.319298 -16.336701 -28.066518 -1.341670 0.071472 16.309743 2.142128 -0.024341 1.636466 0.212895 -0.031766 2.743874 0.355362 0.025922 14.424857 1.884911 1.066851 14.686978 -0.820009 2.256799 -8.498258 -1.931864 -3.387426 -4.910110 -3.857599 6.964749 -11.074809 -5.145676 24.831170 -46.123497 -1.528936 7.338630 3.097435 -23.139947 -2.216376 -7.780063 -3.049875 -4.000982 -6.415610 4.171626 -29.098265 -48.812983 9.484654 -25.551505 4.824082 15.716211 -4.053356 -41.889219 0.471051 -27.056789 74.826198 -29.827882 1.292568 -4.997967 7.292129 0.004841 -0.008527 0.002149 -4.628232 -35.185317 -5.757440 1.097519 69.348701 4.308792 -11.197660 -5.730767 -5.620777 -0.000705 -0.000921 -0.000313
23.977213 126.934711 -51.317983 -16.337289 -28.063345 -1.342536 0.075780 16.309613 2.145522 -0.024600 1.637046 0.210561 -0.030957 2.742513 0.355836 0.037848 14.423719 1.895208 1.056691 14.685586 -0.825317 2.354263 -8.490382 -1.951038 -3.396476 -4.915064 -3.854471 6.965839 -11.065243 -5.153724 24.848184 -46.134000 -1.529805 7.358852 3.099724 -23.172295 -2.213942 -7.789610 -3.044683 -4.015134 -6.408966 4.163929 -29.101230 -48.809904 9.467728 -25.550882 4.821565 15.722710 -4.057844 -41.890505 0.472185 -27.040759 74.825310 -29.815483 1.294715 -4.998420 7.293645 0.002705 -0.008323 0.001201 -4.633158 -35.187615 -5.757128 1.097440 69.351439 4.306810 -11.183982 -5.732059 -5.622686 0.000442 -0.000919 0.000196
23.977517 126.934494 -51.317080 -16.335554 -28.057351 -1.341629 0.074995 16.304603 2.144886 -0.017427 1.642002 0.216894 -0.030867 2.741743 0.357043 0.031440 14.419111 1.895002 1.078376 14.687638 -0.829782 2.407746 -8.487012 -1.967023 -3.397874 -4.920160 -3.852772 6.971305 -11.054040 -5.159805 24.855230 -46.141717 -1.536388 7.366759 3.101820 -23.188622 -2.215260 -7.794542 -3.045136 -4.018804 -6.406615 4.164807 -29.095208 -48.804528 9.450078 -25.548861 4.820113 15.732631 -4.061936 -41.896629 0.471833 -27.028488 74.827757 -29.810181 1.296127 -5.000187 7.294354 0.002133 -0.008963 0.000947 -4.637246 -35.192261 -5.760182 1.088969 69.352756 4.297021 -11.171463 -5.733723 -5.623266 0.001363 -0.000295 0.000605
23.977105 126.934419 -51.316163 -16.330531 -28.053202 -1.345881 0.074847 16.303541 2.150985 -0.018736 1.639471 0.217744 -0.031278 2.740943 0.357438 0.029383 14.418989 1.894520 1.121709 14.690708 -0.827112 2.434183 -8.484036 -1.982479 -3.397928 -4.926182 -3.851236 6.995789 -11.031655 -5.175320 24.838433 -46.161230 -1.535029 7.374672 3.103476 -23.207747 -2.210107 -7.800311 -3.040922 -4.031809 -6.410053 4.179802 -29.076130 -48.802681 9.416093 -25.541126 4.823600 15.738383 -4.071231 -41.898828 0.473659 -27.024251 74.828887 -29.806860 1.298574 -5.003571 7.288334 0.002228 -0.008686 0.000989 -4.643269 -35.195717 -5.759433 1.079832 69.355839 4.288339 -11.167545 -5.735420 -5.622033 0.001352 0.000314 0.000600
23.977495 126.934515 -51.314591 -16.327228 -28.051576 -1.343862 0.072129 16.302040 2.151459 -0.017913 1.639452 0.217343 -0.031866 2.739940 0.357199 0.027086 14.418328 1.894120 1.127057 14.692221 -0.829426 2.504091 -8.478946 -2.005441 -3.397818 -4.934050 -3.852651 7.000383 -11.020113 -5.185864 24.885628 -46.173439 -1.528089 7.348619 3.112872 -23.260592 -2.201805 -7.807224 -3.036032 -4.042212 -6.407036 4.183327 -29.081706 -48.794110 9.408658 -25.534055 4.820600 15.746149 -4.074903 -41.900685 0.467341 -27.028942 74.835513 -29.813388 1.303903 -5.011032 7.278132 0.002400 -0.008501 0.001065 -4.643142 -35.196483 -5.763319 1.068401 69.357128 4.277750 -11.183417 -5.737527 -5.618733 0.000504 0.000088 0.000224
